<svg xmlns="http://www.w3.org/2000/svg"  viewBox="0 0 64 64" width="48px" height="48px"><path d="M 37.878906 1.0039062 C 37.619609 1.0194219 37.358828 1.0842813 37.111328 1.2070312 C 36.929178 1.2972305 33.14658 3.2340545 32.208984 8.5351562 C 30.532106 5.582661 26.885083 4.89521 24.894531 5.0039062 C 23.795531 5.0619062 22.957766 5.99475 23.009766 7.09375 C 23.062766 8.22575 24.04375 9.0520937 25.09375 8.9960938 C 25.388693 8.9845597 27.570503 8.9459881 28.576172 10.291016 C 19.241846 11.789356 11.668896 19.270849 10.251953 28.751953 C 7.9299531 29.779953 6.3632812 32.095562 6.3632812 34.726562 C 6.3632813 38.040563 8.8381094 40.787844 12.037109 41.214844 C 15.628109 49.025844 23.322 54 32 54 C 40.678 54 48.371891 49.025844 51.962891 41.214844 C 55.161891 40.787844 57.636719 38.040563 57.636719 34.726562 C 57.636719 32.095563 56.069047 29.779953 53.748047 28.751953 C 52.361331 19.473102 45.0829 12.094061 36.023438 10.378906 C 36.261674 6.2553331 38.800031 4.8396719 38.888672 4.7929688 C 39.877672 4.3019687 40.282969 3.1032813 39.792969 2.1132812 C 39.424719 1.3707812 38.656797 0.95735938 37.878906 1.0039062 z M 24 28 C 25.657 28 27 29.343 27 31 C 27 32.657 25.657 34 24 34 C 22.343 34 21 32.657 21 31 C 21 29.343 22.343 28 24 28 z M 40 28 C 41.657 28 43 29.343 43 31 C 43 32.657 41.657 34 40 34 C 38.343 34 37 32.657 37 31 C 37 29.343 38.343 28 40 28 z M 24.082031 38.480469 C 24.593281 38.501719 25.096203 38.719 25.470703 39.125 C 27.178703 40.979 29.498 42 32 42 C 34.502 42 36.820297 40.979 38.529297 39.125 C 39.276297 38.312 40.541469 38.259766 41.355469 39.009766 C 42.167469 39.757766 42.219703 41.023938 41.470703 41.835938 C 39.031703 44.482937 35.58 46 32 46 C 28.42 46 24.967297 44.482937 22.529297 41.835938 C 21.780297 41.023938 21.832531 39.757766 22.644531 39.009766 C 23.051031 38.634766 23.570781 38.459219 24.082031 38.480469 z"/></svg>