<svg xmlns="http://www.w3.org/2000/svg"  viewBox="0 0 64 64" width="48px" height="48px"><path d="M 39 7 C 36.234 7 34 9.242 34 12 C 34 14.758 36.234 17 39 17 C 41.766 17 44 14.758 44 12 C 44 9.242 41.766 7 39 7 z M 31.439453 16.089844 C 29.648216 16.076324 28.016007 17.045622 27.121094 18.5625 L 27.113281 18.558594 L 20.699219 29.462891 L 20.708984 29.472656 C 20.269924 30.216877 20 31.074218 20 32 C 20 33.010566 20.306128 33.949225 20.822266 34.736328 C 20.852457 34.782369 20.884362 34.826125 20.916016 34.871094 L 27.634766 44.505859 C 27.634766 44.505859 28.895109 55.003719 28.912109 55.136719 C 28.929109 55.269719 28.984094 55.612766 29.121094 55.884766 C 29.476094 56.586766 30.228547 57.042516 31.060547 56.978516 C 32.162547 56.894516 32.986344 55.932078 32.902344 54.830078 L 32.039062 43.376953 C 32.024063 43.183953 31.980109 42.995406 31.912109 42.816406 C 31.87799 42.72618 30.502437 37.114794 29.703125 33.857422 L 34.457031 25.792969 L 42.466797 34.28125 C 43.151797 35.01025 44.288281 35.128531 45.113281 34.519531 C 46.003281 33.861531 46.193156 32.606797 45.535156 31.716797 L 35.601562 18.275391 C 35.533563 18.185391 35.450094 18.084 35.371094 18 C 35.309609 17.934845 35.237577 17.886565 35.171875 17.828125 C 34.484314 17.033734 33.555594 16.436769 32.447266 16.201172 C 32.109141 16.129297 31.771965 16.092354 31.439453 16.089844 z M 45.650391 36.640625 C 45.040391 36.920625 44.359922 37.040234 43.669922 36.990234 L 47.009766 56.169922 C 47.099766 56.659922 47.52 57 48 57 C 48.06 57 48.109922 57.000234 48.169922 56.990234 C 48.719922 56.890234 49.080234 56.370078 48.990234 55.830078 L 45.650391 36.640625 z M 20.650391 39.740234 L 21.029297 44.150391 C 21.029297 44.150391 16.350781 53.989141 16.300781 54.119141 C 16.240781 54.239141 16.119609 54.569141 16.099609 54.869141 C 16.059609 55.659141 16.480469 56.429063 17.230469 56.789062 C 18.230469 57.259063 19.420391 56.839609 19.900391 55.849609 L 24.898438 46.337891 C 24.919437 46.297891 24.932125 46.274375 24.953125 46.234375 C 24.974125 46.194375 25.025781 46.090781 25.050781 46.050781 L 20.650391 39.740234 z"/></svg>